<svg aria-hidden="true" style="position: absolute; width: 0; height: 0; overflow: hidden;" version="1.1" xmlns="http://www.w3.org/2000/svg" xmlns:xlink="http://www.w3.org/1999/xlink">
<defs>
<symbol id="arrow-1" viewBox="0 0 32 32">
<path d="M17.692 4.891c0.833-0.833 2.184-0.833 3.017 0l9.6 9.6c0.833 0.833 0.833 2.184 0 3.017l-9.6 9.6c-0.833 0.833-2.184 0.833-3.017 0s-0.833-2.184 0-3.017l5.775-5.958h-20.267c-1.178 0-2.133-0.955-2.133-2.133s0.955-2.133 2.133-2.133h20.267l-5.775-5.958c-0.833-0.833-0.833-2.184 0-3.017z"></path>
</symbol>
<symbol id="arrow-2" viewBox="0 0 32 32">
<path d="M23.414 8.586l7.414 7.414-7.414 7.414c-0.781 0.781-2.047 0.781-2.828 0s-0.781-2.047 0-2.828l2.586-2.586h-19.172c-1.105 0-2-0.895-2-2s0.895-2 2-2h19.172l-2.586-2.586c-0.781-0.781-0.781-2.047 0-2.828s2.047-0.781 2.828 0z"></path>
</symbol>
</defs>
</svg>
